<?xml version="1.0" encoding="UTF-8" standalone="no"?>
<!-- Created with Inkscape (http://www.inkscape.org/) -->

<svg
   width="210mm"
   height="131mm"
   viewBox="0 0 210 131"
   version="1.1"
   id="svg5"
   inkscape:export-filename="C:\Users\bogda\bitmap.png"
   inkscape:export-xdpi="96"
   inkscape:export-ydpi="96"
   inkscape:version="1.1 (c68e22c387, 2021-05-23)"
   sodipodi:docname="BH.svg"
   xmlns:inkscape="http://www.inkscape.org/namespaces/inkscape"
   xmlns:sodipodi="http://sodipodi.sourceforge.net/DTD/sodipodi-0.dtd"
   xmlns="http://www.w3.org/2000/svg"
   xmlns:svg="http://www.w3.org/2000/svg">
  <sodipodi:namedview
     id="namedview7"
     pagecolor="#ffffff"
     bordercolor="#666666"
     borderopacity="1.0"
     inkscape:pageshadow="2"
     inkscape:pageopacity="0.0"
     inkscape:pagecheckerboard="0"
     inkscape:document-units="mm"
     showgrid="false"
     showguides="true"
     inkscape:guide-bbox="true"
     inkscape:zoom="0.72337261"
     inkscape:cx="429.23936"
     inkscape:cy="461.03487"
     inkscape:window-width="1920"
     inkscape:window-height="1001"
     inkscape:window-x="-9"
     inkscape:window-y="-9"
     inkscape:window-maximized="1"
     inkscape:current-layer="text3305">
    <sodipodi:guide
       position="179.94452,109.16714"
       orientation="0,-1"
       id="guide24900" />
    <sodipodi:guide
       position="48.235218,79.100955"
       orientation="1,0"
       id="guide27692" />
    <sodipodi:guide
       position="296.02501,40.462491"
       orientation="0,-1"
       id="guide884" />
    <sodipodi:guide
       position="149.6427,138.08053"
       orientation="0,-1"
       id="guide8405" />
    <sodipodi:guide
       position="433.98765,202.34"
       orientation="1,0"
       id="guide16672" />
    <sodipodi:guide
       position="163.97388,186.82197"
       orientation="1,0"
       id="guide16674" />
  </sodipodi:namedview>
  <defs
     id="defs2" />
  <g
     inkscape:label="Layer 1"
     inkscape:groupmode="layer"
     id="layer1">
    <path
       style="fill:none;fill-opacity:1;stroke:#100b47;stroke-width:1.90715;stroke-linecap:butt;stroke-linejoin:miter;stroke-miterlimit:4;stroke-dasharray:none;stroke-opacity:1"
       d="m 12.816589,27.843849 v 57.83919 H 73.190827 V 28.860214 L 19.72214,67.728603 h 25.451886 v 35.247777"
       id="path2605"
       sodipodi:nodetypes="ccccccc"
       inkscape:export-filename="C:\Users\bogda\Desktop\BHS-black.png"
       inkscape:export-xdpi="96"
       inkscape:export-ydpi="96" />
    <g
       aria-label="BETTER HOMES"
       id="text3305"
       style="font-size:18.6914px;line-height:1.25;stroke-width:0.0813865">
      <path
         d="m 83.931292,73.947623 q 1.86914,0 2.953241,0.80373 1.084101,0.803731 1.084101,2.26166 0,0.542051 -0.205605,0.971953 -0.186914,0.429902 -0.504668,0.747656 -0.299062,0.299062 -0.691582,0.504668 -0.373828,0.205605 -0.766347,0.299062 0.523359,0.09346 0.971953,0.317754 0.467285,0.205605 0.80373,0.560742 0.355136,0.355136 0.54205,0.859804 0.205606,0.485977 0.205606,1.121484 0,0.728965 -0.317754,1.345781 -0.317754,0.598125 -0.915879,1.046719 -0.579433,0.448593 -1.420546,0.691581 -0.822422,0.242989 -1.831757,0.242989 H 79.725727 V 73.947623 Z m -1.644844,4.710233 h 1.214941 q 0.841113,0 1.32709,-0.355136 0.504668,-0.373828 0.504668,-1.102793 0,-0.654199 -0.467285,-0.971953 -0.448594,-0.336445 -1.308398,-0.336445 h -1.271016 z m 0,5.121444 h 1.214941 q 0.953262,0 1.570078,-0.355137 0.616816,-0.373828 0.616816,-1.271015 0,-0.841113 -0.654199,-1.19625 -0.654199,-0.373828 -1.60746,-0.373828 h -1.140176 z"
         style="font-weight:bold;-inkscape-font-specification:'Mukta Bold';fill:#100b47;fill-opacity:1"
         id="path836" />
      <path
         d="m 90.379819,73.947623 h 7.663475 v 1.981289 h -5.102753 v 2.691561 h 4.616776 v 1.962597 h -4.616776 v 3.158847 h 5.158827 v 1.981289 h -7.719549 z"
         style="font-weight:bold;-inkscape-font-specification:'Mukta Bold';fill:#100b47;fill-opacity:1"
         id="path838" />
      <path
         d="m 108.08055,73.947623 v 2.018671 h -3.32707 v 9.756912 h -2.56073 v -9.756912 h -3.2523 v -2.018671 z"
         style="font-weight:bold;-inkscape-font-specification:'Mukta Bold';fill:#100b47;fill-opacity:1"
         id="path840" />
      <path
         d="m 117.85612,73.947623 v 2.018671 h -3.32706 v 9.756912 h -2.56073 v -9.756912 h -3.2523 v -2.018671 z"
         style="font-weight:bold;-inkscape-font-specification:'Mukta Bold';fill:#100b47;fill-opacity:1"
         id="path842" />
      <path
         d="m 119.31404,73.947623 h 7.66348 v 1.981289 h -5.10275 v 2.691561 h 4.61677 v 1.962597 h -4.61677 v 3.158847 h 5.15882 v 1.981289 h -7.71955 z"
         style="font-weight:bold;-inkscape-font-specification:'Mukta Bold';fill:#100b47;fill-opacity:1"
         id="path844" />
      <path
         d="m 128.97747,73.947623 h 4.46724 q 0.99064,0 1.7383,0.299063 0.76635,0.280371 1.27102,0.785038 0.50466,0.485977 0.74765,1.158867 0.26168,0.654199 0.26168,1.420547 0,0.710273 -0.22429,1.271015 -0.20561,0.542051 -0.54206,0.953261 -0.31775,0.39252 -0.72896,0.672891 -0.39252,0.261679 -0.76635,0.429902 l 2.87848,4.784999 h -2.93455 l -2.26166,-4.336405 h -1.36447 v 4.336405 h -2.54203 z m 2.54203,5.476581 h 1.00933 q 1.00934,0 1.64485,-0.411211 0.65419,-0.411211 0.65419,-1.364472 0,-0.841113 -0.52335,-1.289707 -0.50467,-0.467285 -1.49532,-0.467285 h -1.2897 z"
         style="font-weight:bold;-inkscape-font-specification:'Mukta Bold';fill:#100b47;fill-opacity:1"
         id="path846" />
      <path
         d="M 144.0801,85.723206 V 73.947623 h 1.34578 v 5.121444 h 5.96256 v -5.121444 h 1.34578 v 11.775583 h -1.34578 v -5.532655 h -5.96256 v 5.532655 z"
         style="font-weight:300;-inkscape-font-specification:'Mukta Light';fill:#100b47;fill-opacity:1"
         id="path848" />
      <path
         d="m 160.47245,73.798092 q 1.12148,0 2.09344,0.373828 0.99064,0.373828 1.70091,1.140175 0.71028,0.747656 1.12149,1.887832 0.41121,1.121484 0.41121,2.635487 0,1.476621 -0.4299,2.616796 -0.41121,1.121485 -1.14018,1.887832 -0.72896,0.766347 -1.71961,1.158867 -0.99064,0.392519 -2.11213,0.392519 -1.12148,0 -2.11212,-0.373828 -0.97196,-0.392519 -1.68223,-1.140175 -0.71027,-0.766348 -1.12148,-1.887832 -0.41121,-1.140175 -0.41121,-2.654179 0,-1.47662 0.41121,-2.598104 0.4299,-1.121484 1.15886,-1.887832 0.72897,-0.766347 1.70092,-1.158867 0.99064,-0.392519 2.13082,-0.392519 z m -3.96258,6.037322 q 0,1.271016 0.31776,2.205586 0.31775,0.93457 0.8598,1.551386 0.54205,0.616816 1.25233,0.915879 0.72896,0.299062 1.53269,0.299062 0.80373,0 1.49531,-0.299062 0.71028,-0.299063 1.23363,-0.915879 0.54205,-0.616816 0.84112,-1.551386 0.31775,-0.93457 0.31775,-2.205586 0,-1.289706 -0.31775,-2.224276 -0.31776,-0.953262 -0.85981,-1.551387 -0.54205,-0.598124 -1.27101,-0.878495 -0.71028,-0.299063 -1.51401,-0.299063 -0.80373,0 -1.514,0.299063 -0.69158,0.299062 -1.23363,0.915878 -0.52336,0.616817 -0.84111,1.551387 -0.29907,0.93457 -0.29907,2.186893 z"
         style="font-weight:300;-inkscape-font-specification:'Mukta Light';fill:#100b47;fill-opacity:1"
         id="path850" />
      <path
         d="m 168.95832,73.947623 h 1.75699 l 2.72895,8.093377 q 0.14953,0.429902 0.31775,0.971952 0.18692,0.542051 0.33645,1.046719 h 0.0374 q 0.14953,-0.485976 0.31775,-1.009336 0.16823,-0.54205 0.31776,-1.009335 l 2.67287,-8.093377 h 1.77568 l 1.12148,11.775583 h -1.34578 l -0.57943,-6.485916 q -0.0935,-0.990645 -0.16822,-1.943906 -0.0561,-0.971953 -0.0935,-1.962597 h -0.0374 q -0.26168,0.897187 -0.57944,1.925214 -0.29906,1.009336 -0.61681,1.981289 l -2.22428,6.485916 h -1.21494 l -2.22428,-6.504608 q -0.33644,-0.990644 -0.6355,-1.925214 -0.29907,-0.953261 -0.56075,-1.962597 h -0.0374 q -0.0561,0.897187 -0.13084,1.906523 -0.0748,1.009335 -0.16822,1.99998 l -0.56074,6.485916 h -1.3084 z"
         style="font-weight:300;-inkscape-font-specification:'Mukta Light';fill:#100b47;fill-opacity:1"
         id="path852" />
      <path
         d="m 183.03293,73.947623 h 6.91582 v 1.102793 h -5.57004 v 4.037342 h 5.08406 v 1.102793 h -5.08406 v 4.429862 h 5.62611 v 1.102793 h -6.97189 z"
         style="font-weight:300;-inkscape-font-specification:'Mukta Light';fill:#100b47;fill-opacity:1"
         id="path854" />
      <path
         d="m 195.46271,73.798092 q 0.84111,0 1.60746,0.149531 0.78503,0.149531 1.55138,0.504668 l -0.33644,1.102793 q -0.80373,-0.373828 -1.45793,-0.52336 -0.63551,-0.149531 -1.3084,-0.149531 -1.14018,0 -1.83176,0.523359 -0.69158,0.504668 -0.69158,1.439238 0,0.822422 0.52336,1.308398 0.52336,0.467285 1.62615,0.822422 l 1.25233,0.411211 q 1.43923,0.485976 2.09343,1.327089 0.67289,0.822422 0.67289,1.887832 0,0.766347 -0.29906,1.383163 -0.28037,0.598125 -0.80373,1.028027 -0.52336,0.411211 -1.25232,0.654199 -0.72897,0.224297 -1.60746,0.224297 -0.89719,0 -1.79438,-0.168222 -0.87849,-0.168223 -1.77568,-0.579434 l 0.35513,-1.102792 q 0.78504,0.392519 1.5327,0.579433 0.76635,0.168223 1.60746,0.168223 1.14018,0 1.88783,-0.504668 0.76635,-0.504668 0.76635,-1.551387 0,-0.373828 -0.11215,-0.691581 -0.0935,-0.336446 -0.35514,-0.616817 -0.26168,-0.280371 -0.71027,-0.523359 -0.44859,-0.261679 -1.14017,-0.485976 l -1.21495,-0.39252 q -1.17755,-0.373828 -1.90652,-1.084101 -0.72896,-0.728964 -0.72896,-1.925214 0,-1.476621 0.99064,-2.336425 0.99065,-0.878496 2.85979,-0.878496 z"
         style="font-weight:300;-inkscape-font-specification:'Mukta Light';fill:#100b47;fill-opacity:1"
         id="path856" />
    </g>
    <text
       xml:space="preserve"
       style="font-style:normal;font-weight:normal;font-size:30.837px;line-height:1.25;font-family:sans-serif;fill:#000000;fill-opacity:1;stroke:none;stroke-width:0.770927"
       x="15.782049"
       y="565.72888"
       id="text22792"><tspan
         sodipodi:role="line"
         id="tspan22790"
         style="stroke-width:0.770927"
         x="15.782049"
         y="565.72888" /></text>
  </g>
</svg>
