<svg width="123" height="123" viewBox="0 0 123 123" fill="none" xmlns="http://www.w3.org/2000/svg">
<rect width="123" height="123" fill="#616066" fill-opacity="0.1"/>
<path d="M62.963 67.0204H88.3057L86.7031 76.641C86.1397 80.0228 84.3947 83.095 81.7788 85.311C79.1628 87.527 75.8455 88.7431 72.4171 88.7427H49.8886C46.4602 88.7431 43.1429 87.527 40.5269 85.311C37.911 83.095 36.166 80.0228 35.6026 76.641L34 67.0204H44.8611" fill="white"/>
<path d="M62.963 67.0204H88.3057L86.7031 76.641C86.1397 80.0228 84.3947 83.095 81.7788 85.311C79.1628 87.527 75.8455 88.7431 72.4171 88.7427H49.8886C46.4602 88.7431 43.1429 87.527 40.5269 85.311C37.911 83.095 36.166 80.0228 35.6026 76.641L34 67.0204H44.8611" stroke="#222223" stroke-width="2.8" stroke-linecap="round" stroke-linejoin="round"/>
<path d="M61.1506 81.5019H46.6691C46.189 81.5019 45.7286 81.3111 45.3891 80.9717C45.0496 80.6322 44.8589 80.1718 44.8589 79.6917V67.0203C44.8589 66.0602 45.2403 65.1393 45.9193 64.4603C46.5982 63.7814 47.5191 63.4 48.4793 63.4H59.3404C60.3006 63.4 61.2214 63.7814 61.9004 64.4603C62.5794 65.1393 62.9608 66.0602 62.9608 67.0203V79.6917C62.9608 80.1718 62.7701 80.6322 62.4306 80.9717C62.0911 81.3111 61.6307 81.5019 61.1506 81.5019Z" fill="white" stroke="#222223" stroke-width="2.8" stroke-linecap="round" stroke-linejoin="round"/>
<path d="M70.2031 41.6778C70.2031 39.7574 70.966 37.9157 72.3239 36.5578C73.6818 35.1999 75.5235 34.4371 77.4439 34.4371C79.3643 34.4371 81.206 35.1999 82.5639 36.5578C83.9218 37.9157 84.6846 39.7574 84.6846 41.6778V67.0205" stroke="#222223" stroke-width="2.8" stroke-linecap="round" stroke-linejoin="round"/>
<path d="M62.9604 48.9188C62.9604 46.9984 63.7233 45.1567 65.0812 43.7988C66.4391 42.4409 68.2808 41.678 70.2012 41.678C72.1216 41.678 73.9633 42.4409 75.3212 43.7988C76.6791 45.1567 77.442 46.9984 77.442 48.9188H62.9604Z" fill="white" stroke="#222223" stroke-width="2.8" stroke-linecap="round" stroke-linejoin="round"/>
</svg>
