<svg width="19" height="15" viewBox="0 0 19 15" fill="none" xmlns="http://www.w3.org/2000/svg">
<path d="M2.65234 7.05945V5.40688C2.65234 5.11469 2.76842 4.83447 2.97503 4.62786C3.18164 4.42125 3.46186 4.30518 3.75405 4.30518H8.16088C8.45307 4.30518 8.7333 4.42125 8.93991 4.62786C9.14652 4.83447 9.26259 5.11469 9.26259 5.40688V7.05945" stroke="#8D8D91" stroke-width="1.2" stroke-linecap="round" stroke-linejoin="round"/>
<path d="M9.2627 7.05945V5.40688C9.2627 5.11469 9.37877 4.83447 9.58538 4.62786C9.79199 4.42125 10.0722 4.30518 10.3644 4.30518H14.7712C15.0634 4.30518 15.3436 4.42125 15.5503 4.62786C15.7569 4.83447 15.8729 5.11469 15.8729 5.40688V7.05945" stroke="#8D8D91" stroke-width="1.2" stroke-linecap="round" stroke-linejoin="round"/>
<path d="M2.46894 7.05957H16.0567C16.4463 7.05957 16.8199 7.21433 17.0954 7.48981C17.3709 7.76529 17.5256 8.13893 17.5256 8.52851V12.0173H1V8.52851C1 8.13893 1.15476 7.76529 1.43024 7.48981C1.70572 7.21433 2.07936 7.05957 2.46894 7.05957V7.05957Z" stroke="#8D8D91" stroke-width="1.2" stroke-linecap="round" stroke-linejoin="round"/>
<path d="M1 12.0171V14.2205" stroke="#8D8D91" stroke-width="1.2" stroke-linecap="round" stroke-linejoin="round"/>
<path d="M17.5254 12.0171V14.2205" stroke="#8D8D91" stroke-width="1.2" stroke-linecap="round" stroke-linejoin="round"/>
<path d="M15.8728 7.05939V2.10171C15.8728 1.80952 15.7568 1.52929 15.5502 1.32268C15.3435 1.11607 15.0633 1 14.7711 1H3.75405C3.46186 1 3.18164 1.11607 2.97503 1.32268C2.76842 1.52929 2.65234 1.80952 2.65234 2.10171V7.05939" stroke="#8D8D91" stroke-width="1.2" stroke-linecap="round" stroke-linejoin="round"/>
</svg>
