<svg width="108" height="108" viewBox="0 0 108 108" fill="none" xmlns="http://www.w3.org/2000/svg">
<g clip-path="url(#clip0_1148_42263)">
<rect width="108" height="108" fill="#F85757" fill-opacity="0.12"/>
<path d="M63.9464 91.5978L53.6112 84.263L43.2759 91.5978C41.6089 92.5979 39.6085 91.5977 39.6085 89.5974V44.9223H67.2804V89.264C67.6138 91.5977 65.28 92.5979 63.9464 91.5978Z" fill="#F85757"/>
<path d="M43.2759 91.5978L53.6112 84.263L53.4445 44.9223H39.6085V89.5974C39.6085 91.5977 41.6089 92.5979 43.2759 91.5978Z" fill="#E74D4D"/>
<g filter="url(#filter0_d_1148_42263)">
<path d="M81.5532 42.1425L79.5651 40.9496C79.1917 40.7629 78.8182 40.4008 78.5271 39.9868C77.9375 39.1483 77.6792 38.0463 77.863 37.0379C77.903 36.8187 77.9631 36.6004 78.0349 36.3743C78.2454 35.7111 78.553 35.0822 78.911 34.4855L79.5651 33.3952C80.758 31.4072 79.1676 28.6239 76.7819 28.6239H74.3963C73.2035 28.6239 72.4083 28.2263 71.6131 27.4311C70.8179 26.6359 70.4203 25.8407 70.4203 24.6479V22.2623C70.4203 19.8766 67.637 18.2862 65.649 19.479L63.661 20.6718C63.2172 20.8937 62.6495 20.9918 62.0272 21.0351C61.0046 21.1063 59.9395 20.9891 59.0583 20.4655C58.626 20.2086 58.3047 19.8994 58.0945 19.479L56.9017 17.491C55.7089 15.503 52.5281 15.503 51.3353 17.491L50.1425 19.479C49.9557 19.8525 49.5936 20.226 49.1796 20.5171C48.3411 21.1067 47.2391 21.365 46.2307 21.1811C45.9006 21.121 45.5723 21.0151 45.2169 20.8925C44.7902 20.7455 44.3734 20.5706 43.9698 20.3687L41.3952 19.0814C39.4072 17.8886 36.6239 19.479 36.6239 21.8647V24.2503C36.6239 25.4431 36.2263 26.2383 35.4311 27.0335C34.6359 27.8287 33.8407 28.2263 32.6479 28.2263H30.2623C27.8766 28.2263 26.2862 31.0095 27.479 32.9976L28.6718 34.9856C28.8937 35.4294 28.9918 35.997 29.0351 36.6194C29.1063 37.642 28.9891 38.707 28.4655 39.5883C28.2086 40.0206 27.8994 40.3419 27.479 40.552L25.491 41.7449C23.503 42.9377 23.503 46.1185 25.491 47.3113L27.479 48.5041C27.8525 48.6909 28.226 49.053 28.5171 49.467C29.1067 50.3055 29.365 51.4074 29.1811 52.4159C29.121 52.746 29.0151 53.0742 28.8925 53.4297C28.7455 53.8563 28.5706 54.2732 28.3687 54.6768L27.479 56.4562C26.2862 58.4442 27.8766 61.2274 30.2623 61.2274H32.6479C33.8407 61.2274 34.6359 61.6251 35.4311 62.4203C36.2263 63.2155 36.6239 64.0107 36.6239 65.2035V67.5891C36.6239 69.9747 39.4072 71.5652 41.3952 70.3723L43.3832 69.1795C43.827 68.9576 44.3946 68.8596 45.017 68.8162C46.0396 68.745 47.1046 68.8623 47.9859 69.3859C48.4182 69.6428 48.7395 69.952 48.9497 70.3723L50.1425 72.3604C51.3353 74.3484 54.5161 74.3484 55.7089 72.3604L56.9017 70.3723C57.0885 69.9989 57.4506 69.6254 57.8646 69.3343C58.7031 68.7447 59.805 68.4864 60.8135 68.6702C61.0326 68.7102 61.251 68.7703 61.477 68.842C62.1403 69.0526 62.7692 69.3601 63.3659 69.7182L64.4562 70.3723C66.4442 71.5652 69.2274 69.9747 69.2274 67.5891V65.2035C69.2274 64.0107 69.625 63.2155 70.4203 62.4203C71.2155 61.6251 72.0107 61.2274 73.2035 61.2274H75.5891C77.9747 61.2274 79.5651 58.4442 78.3723 56.4562L77.1795 54.4682C76.9576 54.0244 76.8596 53.4567 76.8162 52.8343C76.745 51.8118 76.8623 50.7467 77.3859 49.8655C77.6428 49.4331 77.952 49.1119 78.3723 48.9017L79.6156 48.1558C80.1111 47.8585 80.6464 47.6299 81.1461 47.3395C83.5249 45.9571 83.3614 43.2274 81.5532 42.1425Z" fill="white"/>
</g>
<circle opacity="0.21" cx="53.4604" cy="44.9257" r="18.0654" fill="#F85757"/>
<path d="M46.4612 46.6554L50.5629 50.5811L60.4598 39.2703" stroke="#F85757" stroke-width="4" stroke-linecap="round" stroke-linejoin="round"/>
</g>
<defs>
<filter id="filter0_d_1148_42263" x="1.34973" y="-0.689675" width="104.222" height="103.152" filterUnits="userSpaceOnUse" color-interpolation-filters="sRGB">
<feFlood flood-opacity="0" result="BackgroundImageFix"/>
<feColorMatrix in="SourceAlpha" type="matrix" values="0 0 0 0 0 0 0 0 0 0 0 0 0 0 0 0 0 0 127 0" result="hardAlpha"/>
<feOffset dy="5.9606"/>
<feGaussianBlur stdDeviation="11.3251"/>
<feComposite in2="hardAlpha" operator="out"/>
<feColorMatrix type="matrix" values="0 0 0 0 0.132391 0 0 0 0 0.13228 0 0 0 0 0.137836 0 0 0 0.07 0"/>
<feBlend mode="normal" in2="BackgroundImageFix" result="effect1_dropShadow_1148_42263"/>
<feBlend mode="normal" in="SourceGraphic" in2="effect1_dropShadow_1148_42263" result="shape"/>
</filter>
<clipPath id="clip0_1148_42263">
<rect width="108" height="108" fill="white"/>
</clipPath>
</defs>
</svg>
