<svg width="123" height="123" viewBox="0 0 123 123" fill="none" xmlns="http://www.w3.org/2000/svg">
<rect width="123" height="123" fill="#616066" fill-opacity="0.1"/>
<path d="M79.4549 33.7773H44.0569C41.2655 33.7773 39 36.0428 39 38.8342V84.346C39 87.1374 41.2655 89.4028 44.0569 89.4028H79.4549C82.2463 89.4028 84.5118 87.1374 84.5118 84.346V38.8342C84.5118 36.0428 82.2463 33.7773 79.4549 33.7773Z" fill="white" stroke="#222223" stroke-width="3" stroke-linecap="round" stroke-linejoin="round"/>
<path d="M61.7545 54.0043C58.4016 54.0043 55.186 55.3362 52.8151 57.7071C50.4442 60.078 49.1123 63.2936 49.1123 66.6465C49.1123 69.9994 50.4442 73.2149 52.8151 75.5858C55.186 77.9567 58.4016 79.2886 61.7545 79.2886C65.1074 79.2886 68.323 77.9567 70.6938 75.5858C73.0647 73.2149 74.3966 69.9994 74.3966 66.6465C74.3966 63.2936 73.0647 60.078 70.6938 57.7071C68.323 55.3362 65.1074 54.0043 61.7545 54.0043V54.0043Z" fill="white" stroke="#222223" stroke-width="3" stroke-linecap="round" stroke-linejoin="round"/>
<circle cx="48.5734" cy="43.8279" r="3.28335" fill="white" stroke="#222223" stroke-width="3" stroke-linecap="round" stroke-linejoin="round"/>
<circle cx="59.9718" cy="43.8279" r="3.28335" fill="white" stroke="#222223" stroke-width="3" stroke-linecap="round" stroke-linejoin="round"/>
</svg>
