<svg xmlns="http://www.w3.org/2000/svg" x="0" y="0" viewBox="0 0 680.5 63.5" width="680" height="63.5"><path fill="#252d31" d="M263 .5l-26.6 60.4h7l7-16.4H275l6.8 16.4h7.1L263 .5zm-10 38.1l9.9-23.1 9.6 23.1H253zm-29.7-28.4c-6.8-5.8-13.8-7-22.5-7h-10.9v57.6h10.7c9 0 15.9-1.1 22.8-7.3 6.3-5.7 9.4-13.1 9.4-21.5s-3-16.1-9.5-21.8zM219.2 49c-5.3 5-11.2 6-18.2 6h-4.7V9.2h4.7c6.8 0 12.6.9 17.9 5.6 5 4.4 7.5 10.7 7.5 17.3 0 6.4-2.5 12.5-7.2 16.9zm-92.7 11.9h6.5V16.5l44.9 47V3.3h-6.4v44.6L126.5.8zM94 .5L67.4 60.9h7l7-16.4H106l6.8 16.4h7.1L94 .5zM83.9 38.6l9.9-23.1 9.6 23.1H83.9zM0 60.9h6.6l7.4-39h.1l18.5 41.4 18.6-41.4h.2l7.4 39h6.6L53.7 0 32.6 48.4 11.7 0zm650.6 0h29.9V55H657V32.3h22.8v-5.9H657V9.2h23.5V3.3h-29.9zm-63.4 0h6.4V16.5l45 47V3.3h-6.5v44.6L587.2.8zM548 2.3c-16.4 0-30 13.4-30 29.9 0 16.6 13.6 29.7 30 29.7s30-13.2 30-29.7c.1-16.5-13.5-29.9-30-29.9zm0 53.7c-13 0-23.6-10.9-23.6-23.9 0-13.1 10.4-23.9 23.6-23.9 13.2 0 23.6 10.8 23.6 23.9.1 13-10.5 23.9-23.6 23.9zM500.3 9.2h14V3.3h-34.4v5.9h13.9v51.7h6.5zm-26.8 2c-3.1-5.7-8.5-8.9-14.9-8.9-8.6 0-16.1 5.7-16.1 14.7 0 8.3 5.8 11.7 12.5 14.8l3.5 1.5c5.4 2.4 10.6 4.7 10.6 11.5 0 6.5-5.7 11.2-11.9 11.2s-10.7-4.8-11.5-10.7l-6.3 1.8c1.8 8.9 8.7 14.9 18 14.9 10 0 18.1-7.7 18.1-17.8 0-9.2-6.3-12.9-13.8-16.2l-3.8-1.7c-3.9-1.8-9-4.1-9-9 0-5.3 4.4-8.9 9.6-8.9 4.9 0 7.6 2.3 9.9 6.3l5.1-3.5zM355.3 60.9h6.4V16.5l45 47V3.3h-6.5v44.6L355.3.8zM336.8 3.3h6.4v57.6h-6.4zm-26.6 31.8c8.9-.8 14.4-7 14.4-15.9 0-13-10.2-15.9-21.1-15.9h-8.3v57.6h6.4V35.6h1.6l17.4 25.3h7.9l-18.3-25.8zm-8.6-5.1V9.2h1.9c7.7 0 14.7.9 14.7 10.4 0 8.9-7.3 10.3-14.6 10.3l-2 .1z"/></svg>