<svg width="17" height="17" viewBox="0 0 17 17" fill="none" xmlns="http://www.w3.org/2000/svg">
<path d="M8.89674 9.88379H15.8064L15.3694 12.5068C15.2158 13.4289 14.7401 14.2665 14.0268 14.8707C13.3136 15.4749 12.4091 15.8064 11.4744 15.8063H5.33202C4.39727 15.8064 3.4928 15.4749 2.77956 14.8707C2.06632 14.2665 1.59056 13.4289 1.43695 12.5068L1 9.88379H3.96128" stroke="#8D8D91" stroke-width="1.2" stroke-linecap="round" stroke-linejoin="round"/>
<path d="M8.40286 13.8319H4.45448C4.32359 13.8319 4.19805 13.78 4.10549 13.6874C4.01294 13.5948 3.96094 13.4693 3.96094 13.3384V9.88358C3.96094 9.62178 4.06493 9.37071 4.25005 9.1856C4.43517 9.00048 4.68624 8.89648 4.94803 8.89648H7.90931C8.1711 8.89648 8.42217 9.00048 8.60729 9.1856C8.79241 9.37071 8.8964 9.62178 8.8964 9.88358V13.3384C8.8964 13.4693 8.8444 13.5948 8.75185 13.6874C8.65929 13.78 8.53375 13.8319 8.40286 13.8319Z" stroke="#8D8D91" stroke-width="1.2" stroke-linecap="round" stroke-linejoin="round"/>
<path d="M10.8711 2.97419C10.8711 2.4506 11.0791 1.94846 11.4493 1.57823C11.8196 1.20799 12.3217 1 12.8453 1C13.3689 1 13.871 1.20799 14.2412 1.57823C14.6115 1.94846 14.8195 2.4506 14.8195 2.97419V9.88384" stroke="#8D8D91" stroke-width="1.2" stroke-linecap="round" stroke-linejoin="round"/>
<path d="M8.89648 4.94831C8.89648 4.42472 9.10448 3.92258 9.47471 3.55235C9.84494 3.18212 10.3471 2.97412 10.8707 2.97412C11.3943 2.97412 11.8964 3.18212 12.2666 3.55235C12.6369 3.92258 12.8449 4.42472 12.8449 4.94831H8.89648Z" stroke="#8D8D91" stroke-width="1.2" stroke-linecap="round" stroke-linejoin="round"/>
</svg>
