<svg width="29" height="29" viewBox="0 0 29 29" fill="none" xmlns="http://www.w3.org/2000/svg">
<path d="M3 12.636V7.31799C3 6.61278 3.28014 5.93646 3.7788 5.4378C4.27746 4.93914 4.95379 4.659 5.659 4.659H8.31799M3 12.636V24.6015C3 25.3067 3.28014 25.983 3.7788 26.4817C4.27746 26.9803 4.95379 27.2605 5.659 27.2605H24.272C24.9772 27.2605 25.6535 26.9803 26.1522 26.4817C26.6508 25.983 26.931 25.3067 26.931 24.6015V12.636M3 12.636H26.931M8.31799 4.659V2M8.31799 4.659V7.31799M26.931 12.636V7.31799C26.931 6.61278 26.6508 5.93646 26.1522 5.4378C25.6535 4.93914 24.9772 4.659 24.272 4.659H23.6072M18.954 4.659V2M18.954 4.659V7.31799M18.954 4.659H12.9712" stroke="#8D8D91" stroke-width="1.5" stroke-linecap="round" stroke-linejoin="round"/>
</svg>
