<svg width="29" height="29" viewBox="0 0 29 29" fill="none" xmlns="http://www.w3.org/2000/svg">
<path d="M17.3145 25.1765L17.3277 25.1857C18.4664 25.9108 19.8184 26.2256 21.1603 26.0783C22.5021 25.9309 23.7536 25.3301 24.7078 24.3752L25.5368 23.5463C25.7205 23.3627 25.8662 23.1447 25.9656 22.9048C26.065 22.6649 26.1162 22.4077 26.1162 22.148C26.1162 21.8883 26.065 21.6311 25.9656 21.3912C25.8662 21.1513 25.7205 20.9333 25.5368 20.7497L22.0404 17.256C21.8568 17.0723 21.6389 16.9266 21.3989 16.8272C21.159 16.7278 20.9018 16.6766 20.6421 16.6766C20.3824 16.6766 20.1253 16.7278 19.8854 16.8272C19.6454 16.9266 19.4274 17.0723 19.2439 17.256C18.8732 17.6266 18.3704 17.8348 17.8463 17.8348C17.3221 17.8348 16.8193 17.6266 16.4486 17.256L10.8582 11.6643C10.4876 11.2936 10.2794 10.7908 10.2794 10.2666C10.2794 9.74247 10.4876 9.23975 10.8582 8.86904C11.0419 8.68546 11.1876 8.46748 11.287 8.22755C11.3865 7.98763 11.4376 7.73047 11.4376 7.47076C11.4376 7.21106 11.3865 6.9539 11.287 6.71397C11.1876 6.47405 11.0419 6.25607 10.8582 6.07249L7.36316 2.57879C6.99245 2.20819 6.48973 2 5.96555 2C5.44137 2 4.93864 2.20819 4.56794 2.57879L3.73767 3.40773C2.78298 4.36212 2.18246 5.61364 2.03534 6.95552C1.88821 8.29739 2.20328 9.6493 2.92849 10.7879L2.9364 10.8011C6.7664 16.4677 11.6472 21.3475 17.3145 25.1765V25.1765Z" stroke="#8D8D91" stroke-width="1.5" stroke-linecap="round" stroke-linejoin="round"/>
</svg>
