<?xml version="1.0" encoding="UTF-8"?>
<svg width="24px" height="24px" viewBox="0 0 24 24" version="1.1" xmlns="http://www.w3.org/2000/svg" xmlns:xlink="http://www.w3.org/1999/xlink">
    <!-- Generator: Sketch 62 (91390) - https://sketch.com -->
    <title>Icons/twitter</title>
    <desc>Created with Sketch.</desc>
    <g id="Icons/twitter" stroke="none" stroke-width="1" fill="none" fill-rule="evenodd">
        <g id="icons8-twitter_squared" transform="translate(2.000000, 4.000000)" fill="#151515">
            <path d="M20,-0.001 C19.22,0.462 17.655,1.093 16.735,1.275 C16.708,1.282 16.686,1.291 16.66,1.298 C15.847,0.496 14.733,-0.001 13.5,-0.001 C11.015,-0.001 9,2.014 9,4.499 C9,4.63 8.989,4.871 9,4.999 C5.647,4.999 3.095,3.243 1.265,0.999 C1.066,1.499 0.979,2.289 0.979,3.031 C0.979,4.432 2.074,5.808 3.779,6.661 C3.465,6.742 3.119,6.8 2.759,6.8 C2.178,6.8 1.563,6.647 1,6.183 C1,6.2 1,6.216 1,6.234 C1,8.192 3.078,9.525 4.926,9.896 C4.551,10.117 3.795,10.139 3.426,10.139 C3.166,10.139 2.246,10.02 2,9.974 C2.514,11.579 4.368,12.481 6.135,12.513 C4.753,13.597 3.794,13.999 0.964,13.999 L0,13.999 C1.788,15.145 4.065,16 6.347,16 C13.777,16 18,10.337 18,4.999 C18,4.913 17.998,4.733 17.995,4.552 C17.995,4.534 18,4.517 18,4.499 C18,4.472 17.992,4.446 17.992,4.419 C17.989,4.283 17.986,4.156 17.983,4.09 C18.773,3.52 19.458,2.809 20,1.999 C19.275,2.321 18.497,2.537 17.68,2.635 C18.514,2.135 19.699,0.943 20,-0.001 Z" id="Path"></path>
        </g>
    </g>
</svg>